<?xml version="1.0" encoding="us-ascii" standalone="no"?><svg xmlns="http://www.w3.org/2000/svg" xmlns:xlink="http://www.w3.org/1999/xlink" contentStyleType="text/css" height="681px" preserveAspectRatio="none" style="width:616px;height:681px;background:#FFFFFF;" version="1.1" viewBox="0 0 616 681" width="616px" zoomAndPan="magnify"><defs/><g><!--class u--><g id="elem_u"><rect codeLine="4" fill="#F1F1F1" height="108.4414" id="u" rx="2.5" ry="2.5" style="stroke:#181818;stroke-width:0.5;" width="129" x="128" y="7"/><text fill="#000000" font-family="sans-serif" font-size="14" lengthAdjust="spacing" textLength="37" x="174" y="25.5352">users</text><line style="stroke:#181818;stroke-width:0.5;" x1="129" x2="256" y1="33.4883" y2="33.4883"/><ellipse cx="139" cy="47.2324" fill="#000000" rx="3" ry="3" style="stroke:#000000;stroke-width:1.0;"/><text fill="#000000" font-family="sans-serif" font-size="14" lengthAdjust="spacing" textLength="80" x="148" y="51.0234">id: bigserial</text><text fill="#000000" font-family="sans-serif" font-size="14" font-weight="bold" lengthAdjust="spacing" textLength="19" x="232" y="51.0234">PK</text><line style="stroke:#181818;stroke-width:1.0;" x1="129" x2="256" y1="57.9766" y2="57.9766"/><ellipse cx="139" cy="71.7207" fill="#000000" rx="3" ry="3" style="stroke:#000000;stroke-width:1.0;"/><text fill="#000000" font-family="sans-serif" font-size="14" lengthAdjust="spacing" textLength="72" x="148" y="75.5117">email: text</text><ellipse cx="139" cy="88.209" fill="#000000" rx="3" ry="3" style="stroke:#000000;stroke-width:1.0;"/><text fill="#000000" font-family="sans-serif" font-size="14" lengthAdjust="spacing" textLength="92" x="148" y="92">created_at: tz</text><text fill="#000000" font-family="sans-serif" font-size="14" lengthAdjust="spacing" textLength="95" x="148" y="108.4883">blocked_at: tz</text></g><!--class t--><g id="elem_t"><rect codeLine="12" fill="#F1F1F1" height="207.3711" id="t" rx="2.5" ry="2.5" style="stroke:#181818;stroke-width:0.5;" width="213" x="166" y="175.44"/><text fill="#000000" font-family="sans-serif" font-size="14" lengthAdjust="spacing" textLength="35" x="255" y="193.9752">tasks</text><line style="stroke:#181818;stroke-width:0.5;" x1="167" x2="378" y1="201.9283" y2="201.9283"/><ellipse cx="177" cy="215.6724" fill="#000000" rx="3" ry="3" style="stroke:#000000;stroke-width:1.0;"/><text fill="#000000" font-family="sans-serif" font-size="14" lengthAdjust="spacing" textLength="80" x="186" y="219.4634">id: bigserial</text><text fill="#000000" font-family="sans-serif" font-size="14" font-weight="bold" lengthAdjust="spacing" textLength="19" x="270" y="219.4634">PK</text><line style="stroke:#181818;stroke-width:1.0;" x1="167" x2="378" y1="226.4166" y2="226.4166"/><text fill="#000000" font-family="sans-serif" font-size="14" lengthAdjust="spacing" textLength="148" x="186" y="243.9517">parent_task_id: bigint</text><text fill="#000000" font-family="sans-serif" font-size="14" font-weight="bold" lengthAdjust="spacing" textLength="23" x="338" y="243.9517">IX1</text><ellipse cx="177" cy="256.649" fill="#000000" rx="3" ry="3" style="stroke:#000000;stroke-width:1.0;"/><text fill="#000000" font-family="sans-serif" font-size="14" lengthAdjust="spacing" textLength="89" x="186" y="260.44">number: text</text><text fill="#000000" font-family="sans-serif" font-size="14" font-weight="bold" lengthAdjust="spacing" textLength="20" x="279" y="260.44">UK</text><ellipse cx="177" cy="273.1373" fill="#000000" rx="3" ry="3" style="stroke:#000000;stroke-width:1.0;"/><text fill="#000000" font-family="sans-serif" font-size="14" lengthAdjust="spacing" textLength="61" x="186" y="276.9283">title: text</text><text fill="#000000" font-family="sans-serif" font-size="14" lengthAdjust="spacing" textLength="112" x="186" y="293.4166">description: text</text><ellipse cx="177" cy="306.1138" fill="#000000" rx="3" ry="3" style="stroke:#000000;stroke-width:1.0;"/><text fill="#000000" font-family="sans-serif" font-size="14" lengthAdjust="spacing" textLength="67" x="186" y="309.9048">status: int</text><text fill="#000000" font-family="sans-serif" font-size="14" font-weight="bold" lengthAdjust="spacing" textLength="23" x="257" y="309.9048">IX2</text><ellipse cx="177" cy="322.6021" fill="#000000" rx="3" ry="3" style="stroke:#000000;stroke-width:1.0;"/><text fill="#000000" font-family="sans-serif" font-size="14" lengthAdjust="spacing" textLength="149" x="186" y="326.3931">created_at: tz not null</text><ellipse cx="177" cy="339.0904" fill="#000000" rx="3" ry="3" style="stroke:#000000;stroke-width:1.0;"/><text fill="#000000" font-family="sans-serif" font-size="14" lengthAdjust="spacing" textLength="179" x="186" y="342.8814">created_by_user_id: bigint</text><text fill="#000000" font-family="sans-serif" font-size="14" lengthAdjust="spacing" textLength="187" x="186" y="359.3697">assigned_to_user_id: bigint</text><text fill="#000000" font-family="sans-serif" font-size="14" lengthAdjust="spacing" textLength="113" x="186" y="375.858">completed_at: tz</text></g><!--class tc--><g id="elem_tc"><rect codeLine="26" fill="#F1F1F1" height="124.9297" id="tc" rx="2.5" ry="2.5" style="stroke:#181818;stroke-width:0.5;" width="177" x="432" y="216.66"/><text fill="#000000" font-family="sans-serif" font-size="14" lengthAdjust="spacing" textLength="106" x="467.5" y="235.1952">task_comments</text><line style="stroke:#181818;stroke-width:0.5;" x1="433" x2="608" y1="243.1483" y2="243.1483"/><ellipse cx="443" cy="256.8924" fill="#000000" rx="3" ry="3" style="stroke:#000000;stroke-width:1.0;"/><text fill="#000000" font-family="sans-serif" font-size="14" lengthAdjust="spacing" textLength="80" x="452" y="260.6834">id: bigserial</text><text fill="#000000" font-family="sans-serif" font-size="14" font-weight="bold" lengthAdjust="spacing" textLength="19" x="536" y="260.6834">PK</text><line style="stroke:#181818;stroke-width:1.0;" x1="433" x2="608" y1="267.6366" y2="267.6366"/><ellipse cx="443" cy="281.3807" fill="#000000" rx="3" ry="3" style="stroke:#000000;stroke-width:1.0;"/><text fill="#000000" font-family="sans-serif" font-size="14" lengthAdjust="spacing" textLength="96" x="452" y="285.1717">task_id: bigint</text><ellipse cx="443" cy="297.869" fill="#000000" rx="3" ry="3" style="stroke:#000000;stroke-width:1.0;"/><text fill="#000000" font-family="sans-serif" font-size="14" lengthAdjust="spacing" textLength="151" x="452" y="301.66">author_user_id: bigint</text><ellipse cx="443" cy="314.3573" fill="#000000" rx="3" ry="3" style="stroke:#000000;stroke-width:1.0;"/><text fill="#000000" font-family="sans-serif" font-size="14" lengthAdjust="spacing" textLength="95" x="452" y="318.1483">message: text</text><ellipse cx="443" cy="330.8455" fill="#000000" rx="3" ry="3" style="stroke:#000000;stroke-width:1.0;"/><text fill="#000000" font-family="sans-serif" font-size="14" lengthAdjust="spacing" textLength="34" x="452" y="334.6366">at: tz</text></g><!--class ts--><g id="elem_ts"><rect codeLine="35" fill="#F1F1F1" height="108.4414" id="ts" rx="2.5" ry="2.5" style="stroke:#181818;stroke-width:0.5;" width="138" x="255.5" y="504.52"/><text fill="#000000" font-family="sans-serif" font-size="14" lengthAdjust="spacing" textLength="91" x="279" y="523.0552">task_statuses</text><line style="stroke:#181818;stroke-width:0.5;" x1="256.5" x2="392.5" y1="531.0083" y2="531.0083"/><ellipse cx="266.5" cy="544.7524" fill="#000000" rx="3" ry="3" style="stroke:#000000;stroke-width:1.0;"/><text fill="#000000" font-family="sans-serif" font-size="14" lengthAdjust="spacing" textLength="39" x="275.5" y="548.5434">id: int</text><text fill="#000000" font-family="sans-serif" font-size="14" font-weight="bold" lengthAdjust="spacing" textLength="19" x="318.5" y="548.5434">PK</text><line style="stroke:#181818;stroke-width:1.0;" x1="256.5" x2="392.5" y1="555.4966" y2="555.4966"/><ellipse cx="266.5" cy="569.2407" fill="#000000" rx="3" ry="3" style="stroke:#000000;stroke-width:1.0;"/><text fill="#000000" font-family="sans-serif" font-size="14" lengthAdjust="spacing" textLength="66" x="275.5" y="573.0317">alias: text</text><text fill="#000000" font-family="sans-serif" font-size="14" font-weight="bold" lengthAdjust="spacing" textLength="20" x="345.5" y="573.0317">UK</text><ellipse cx="266.5" cy="585.729" fill="#000000" rx="3" ry="3" style="stroke:#000000;stroke-width:1.0;"/><text fill="#000000" font-family="sans-serif" font-size="14" lengthAdjust="spacing" textLength="73" x="275.5" y="589.52">name: text</text><text fill="#000000" font-family="sans-serif" font-size="14" lengthAdjust="spacing" textLength="112" x="275.5" y="606.0083">description: text</text></g><!--class tl--><g id="elem_tl"><rect codeLine="43" fill="#F1F1F1" height="231.8594" id="tl" rx="2.5" ry="2.5" style="stroke:#181818;stroke-width:0.5;" width="213" x="7" y="442.81"/><text fill="#000000" font-family="sans-serif" font-size="14" lengthAdjust="spacing" textLength="64" x="81.5" y="461.3452">task_logs</text><line style="stroke:#181818;stroke-width:0.5;" x1="8" x2="219" y1="469.2983" y2="469.2983"/><ellipse cx="18" cy="483.0424" fill="#000000" rx="3" ry="3" style="stroke:#000000;stroke-width:1.0;"/><text fill="#000000" font-family="sans-serif" font-size="14" lengthAdjust="spacing" textLength="80" x="27" y="486.8334">id: bigserial</text><text fill="#000000" font-family="sans-serif" font-size="14" font-weight="bold" lengthAdjust="spacing" textLength="19" x="111" y="486.8334">PK</text><line style="stroke:#181818;stroke-width:1.0;" x1="8" x2="219" y1="493.7866" y2="493.7866"/><ellipse cx="18" cy="507.5307" fill="#000000" rx="3" ry="3" style="stroke:#000000;stroke-width:1.0;"/><text fill="#000000" font-family="sans-serif" font-size="14" lengthAdjust="spacing" textLength="96" x="27" y="511.3217">task_id: bigint</text><text fill="#000000" font-family="sans-serif" font-size="14" lengthAdjust="spacing" textLength="148" x="27" y="527.81">parent_task_id: bigint</text><ellipse cx="18" cy="540.5073" fill="#000000" rx="3" ry="3" style="stroke:#000000;stroke-width:1.0;"/><text fill="#000000" font-family="sans-serif" font-size="14" lengthAdjust="spacing" textLength="89" x="27" y="544.2983">number: text</text><ellipse cx="18" cy="556.9955" fill="#000000" rx="3" ry="3" style="stroke:#000000;stroke-width:1.0;"/><text fill="#000000" font-family="sans-serif" font-size="14" lengthAdjust="spacing" textLength="61" x="27" y="560.7866">title: text</text><text fill="#000000" font-family="sans-serif" font-size="14" lengthAdjust="spacing" textLength="112" x="27" y="577.2748">description: text</text><ellipse cx="18" cy="589.9721" fill="#000000" rx="3" ry="3" style="stroke:#000000;stroke-width:1.0;"/><text fill="#000000" font-family="sans-serif" font-size="14" lengthAdjust="spacing" textLength="67" x="27" y="593.7631">status: int</text><ellipse cx="18" cy="606.4604" fill="#000000" rx="3" ry="3" style="stroke:#000000;stroke-width:1.0;"/><text fill="#000000" font-family="sans-serif" font-size="14" lengthAdjust="spacing" textLength="179" x="27" y="610.2514">created_by_user_id: bigint</text><text fill="#000000" font-family="sans-serif" font-size="14" lengthAdjust="spacing" textLength="187" x="27" y="626.7397">assigned_to_user_id: bigint</text><line style="stroke:#181818;stroke-width:1.0;" x1="8" x2="219" y1="633.6928" y2="633.6928"/><ellipse cx="18" cy="647.437" fill="#000000" rx="3" ry="3" style="stroke:#000000;stroke-width:1.0;"/><text fill="#000000" font-family="sans-serif" font-size="14" lengthAdjust="spacing" textLength="98" x="27" y="651.228">user_id: bigint</text><ellipse cx="18" cy="663.9252" fill="#000000" rx="3" ry="3" style="stroke:#000000;stroke-width:1.0;"/><text fill="#000000" font-family="sans-serif" font-size="14" lengthAdjust="spacing" textLength="34" x="27" y="667.7163">at: tz</text></g><!--link t to t--><g id="link_t_t"><path codeLine="59" d="M196.33,165.96 C196.33,165.96 196.33,145.67 196.33,145.67 C196.33,145.67 153.33,145.67 153.33,145.67 C153.33,145.67 153.33,413.67 153.33,413.67 C153.33,413.67 184,413.67 184,413.67 C184,413.67 184,392.14 184,392.14 " fill="none" id="t-t" style="stroke:#181818;stroke-width:1.0;"/><line style="stroke:#181818;stroke-width:1.0;" x1="200.33" x2="192.33" y1="169.96" y2="169.96"/><line style="stroke:#181818;stroke-width:1.0;" x1="200.33" x2="192.33" y1="166.96" y2="166.96"/><line style="stroke:#181818;stroke-width:1.0;" x1="196.33" x2="196.33" y1="165.96" y2="173.96"/><line style="stroke:#181818;stroke-width:1.0;" x1="184" x2="178" y1="392.14" y2="384.14"/><line style="stroke:#181818;stroke-width:1.0;" x1="184" x2="190" y1="392.14" y2="384.14"/><line style="stroke:#181818;stroke-width:1.0;" x1="184" x2="184" y1="392.14" y2="384.14"/><line style="stroke:#181818;stroke-width:1.0;" x1="180" x2="188" y1="394.14" y2="394.14"/></g><!--link t to tl--><g id="link_t_tl"><path codeLine="60" d="M202,392.24 C202,392.24 202,433.78 202,433.78 " fill="none" id="t-tl" style="stroke:#181818;stroke-width:1.0;stroke-dasharray:7.0,7.0;"/><line style="stroke:#181818;stroke-width:1.0;" x1="198" x2="206" y1="388.24" y2="388.24"/><line style="stroke:#181818;stroke-width:1.0;" x1="198" x2="206" y1="391.24" y2="391.24"/><line style="stroke:#181818;stroke-width:1.0;" x1="202" x2="202" y1="392.24" y2="384.24"/><line style="stroke:#181818;stroke-width:1.0;" x1="202" x2="208" y1="433.78" y2="441.78"/><line style="stroke:#181818;stroke-width:1.0;" x1="202" x2="196" y1="433.78" y2="441.78"/><line style="stroke:#181818;stroke-width:1.0;" x1="202" x2="202" y1="433.78" y2="441.78"/><line style="stroke:#181818;stroke-width:1.0;" x1="206" x2="198" y1="431.78" y2="431.78"/></g><!--link t to tc--><g id="link_t_tc"><path codeLine="61" d="M388.47,279.67 C388.47,279.67 422.74,279.67 422.74,279.67 " fill="none" id="t-tc" style="stroke:#181818;stroke-width:1.0;"/><line style="stroke:#181818;stroke-width:1.0;" x1="384.47" x2="384.47" y1="283.67" y2="275.67"/><line style="stroke:#181818;stroke-width:1.0;" x1="387.47" x2="387.47" y1="283.67" y2="275.67"/><line style="stroke:#181818;stroke-width:1.0;" x1="388.47" x2="380.47" y1="279.67" y2="279.67"/><line style="stroke:#181818;stroke-width:1.0;" x1="422.74" x2="430.74" y1="279.67" y2="273.67"/><line style="stroke:#181818;stroke-width:1.0;" x1="422.74" x2="430.74" y1="279.67" y2="285.67"/><line style="stroke:#181818;stroke-width:1.0;" x1="422.74" x2="430.74" y1="279.67" y2="279.67"/><line style="stroke:#181818;stroke-width:1.0;" x1="420.74" x2="420.74" y1="275.67" y2="283.67"/></g><!--link u to t--><g id="link_u_t"><path codeLine="62" d="M226.67,124.92 C226.67,124.92 226.67,166.1 226.67,166.1 " fill="none" id="u-t" style="stroke:#181818;stroke-width:1.0;"/><line style="stroke:#181818;stroke-width:1.0;" x1="222.67" x2="230.67" y1="120.92" y2="120.92"/><line style="stroke:#181818;stroke-width:1.0;" x1="222.67" x2="230.67" y1="123.92" y2="123.92"/><line style="stroke:#181818;stroke-width:1.0;" x1="226.67" x2="226.67" y1="124.92" y2="116.92"/><line style="stroke:#181818;stroke-width:1.0;" x1="226.67" x2="232.67" y1="166.1" y2="174.1"/><line style="stroke:#181818;stroke-width:1.0;" x1="226.67" x2="220.67" y1="166.1" y2="174.1"/><line style="stroke:#181818;stroke-width:1.0;" x1="226.67" x2="226.67" y1="166.1" y2="174.1"/><line style="stroke:#181818;stroke-width:1.0;" x1="230.67" x2="222.67" y1="164.1" y2="164.1"/></g><!--link u to tl--><g id="link_u_tl"><path codeLine="63" d="M140.67,124.89 C140.67,124.89 140.67,433.38 140.67,433.38 " fill="none" id="u-tl" style="stroke:#181818;stroke-width:1.0;stroke-dasharray:7.0,7.0;"/><line style="stroke:#181818;stroke-width:1.0;" x1="136.67" x2="144.67" y1="120.89" y2="120.89"/><line style="stroke:#181818;stroke-width:1.0;" x1="136.67" x2="144.67" y1="123.89" y2="123.89"/><line style="stroke:#181818;stroke-width:1.0;" x1="140.67" x2="140.67" y1="124.89" y2="116.89"/><line style="stroke:#181818;stroke-width:1.0;" x1="140.67" x2="146.67" y1="433.38" y2="441.38"/><line style="stroke:#181818;stroke-width:1.0;" x1="140.67" x2="134.67" y1="433.38" y2="441.38"/><line style="stroke:#181818;stroke-width:1.0;" x1="140.67" x2="140.67" y1="433.38" y2="441.38"/><line style="stroke:#181818;stroke-width:1.0;" x1="144.67" x2="136.67" y1="431.38" y2="431.38"/></g><!--link t to ts--><g id="link_t_ts"><path codeLine="64" d="M317.25,392.24 C317.25,392.24 317.25,495.35 317.25,495.35 " fill="none" id="t-ts" style="stroke:#181818;stroke-width:1.0;"/><line style="stroke:#181818;stroke-width:1.0;" x1="317.25" x2="311.25" y1="392.24" y2="384.24"/><line style="stroke:#181818;stroke-width:1.0;" x1="317.25" x2="323.25" y1="392.24" y2="384.24"/><line style="stroke:#181818;stroke-width:1.0;" x1="317.25" x2="317.25" y1="392.24" y2="384.24"/><line style="stroke:#181818;stroke-width:1.0;" x1="313.25" x2="321.25" y1="394.24" y2="394.24"/><line style="stroke:#181818;stroke-width:1.0;" x1="321.25" x2="313.25" y1="499.35" y2="499.35"/><line style="stroke:#181818;stroke-width:1.0;" x1="321.25" x2="313.25" y1="496.35" y2="496.35"/><line style="stroke:#181818;stroke-width:1.0;" x1="317.25" x2="317.25" y1="495.35" y2="503.35"/></g><!--link tl to ts--><g id="link_tl_ts"><path codeLine="65" d="M229.24,559.67 C229.24,559.67 246.15,559.67 246.15,559.67 " fill="none" id="tl-ts" style="stroke:#181818;stroke-width:1.0;stroke-dasharray:7.0,7.0;"/><line style="stroke:#181818;stroke-width:1.0;" x1="229.24" x2="221.24" y1="559.67" y2="565.67"/><line style="stroke:#181818;stroke-width:1.0;" x1="229.24" x2="221.24" y1="559.67" y2="553.67"/><line style="stroke:#181818;stroke-width:1.0;" x1="229.24" x2="221.24" y1="559.67" y2="559.67"/><line style="stroke:#181818;stroke-width:1.0;" x1="231.24" x2="231.24" y1="563.67" y2="555.67"/><line style="stroke:#181818;stroke-width:1.0;" x1="250.15" x2="250.15" y1="555.67" y2="563.67"/><line style="stroke:#181818;stroke-width:1.0;" x1="247.15" x2="247.15" y1="555.67" y2="563.67"/><line style="stroke:#181818;stroke-width:1.0;" x1="246.15" x2="254.15" y1="559.67" y2="559.67"/></g><!--SRC=[fLB1JiCm3BttAooEaJe9Zli3n8KB4hVAJKrdBKscn94O6_zEsfIjwpe1egValUUyLziRRWWqUsse25ksE_JOWM5BijyHE2yRLnHaXMKFTp6G3tU00I8S2aYVucODDRU9O3IWrFEJKWDJbbb07R9PWz2xP41xGg6cGadenu3Lnkdj6VeyEmg6RNQKmV6Mt-2MmgUwgg-fHXrRIQB7r_j1fMpiQl8vJS9VSh5ANePE6HiAslDEsDaJfeAWnB26xmSVSkNbpu1r0ZOQCwNgVTNtRP8eiHW2jpQnuXPOxRgT8RdPaIe9kWICdT6_7iQiDHd4c8Ri5s8ahgCGiANf_6v4oWsYCLAOHiezkmg3XZ7CPz4F2RkfuVKuvjR6jQEj-Nb95dgml3VpVVdxelnp2tBSQtmo0G4u7iloU039vzMgFvkHyDnkP61r4IVIU24DFM7eJSPt-lkglu-2Bm00]--></g></svg>